<svg xmlns="http://www.w3.org/2000/svg" viewBox="0 0 512 512" role="img" aria-labelledby="title">
  <title>IT's No Matata app icon</title>
  <defs>
    <linearGradient id="orange" x1="112" y1="96" x2="396" y2="388" gradientUnits="userSpaceOnUse">
      <stop offset="0" stop-color="#ff8a1c"/>
      <stop offset="0.52" stop-color="#f97316"/>
      <stop offset="1" stop-color="#ec4899"/>
    </linearGradient>
    <filter id="shadow" x="-20%" y="-20%" width="140%" height="140%" color-interpolation-filters="sRGB">
      <feDropShadow dx="0" dy="18" stdDeviation="18" flood-color="#000000" flood-opacity="0.38"/>
    </filter>
  </defs>
  <rect width="512" height="512" rx="112" fill="#101010"/>
  <circle cx="116" cy="114" r="18" fill="#ec4899"/>
  <circle cx="404" cy="136" r="14" fill="#fb7185"/>
  <circle cx="398" cy="396" r="12" fill="#fb923c"/>
  <g filter="url(#shadow)">
    <rect x="82" y="100" width="348" height="300" rx="76" fill="url(#orange)"/>
    <path d="M143 176h62v176h-62V176Zm93 0h154v55h-46v121h-62V231h-46v-55Z" fill="#fffaf3"/>
    <path d="M166 156c25-26 61-38 106-38 50 0 88 14 113 42H283c-30-16-72-17-117-4Z" fill="#ffb347" opacity="0.72"/>
  </g>
  <rect x="155" y="371" width="202" height="58" rx="29" fill="#050505" opacity="0.88"/>
  <text x="256" y="411"
        text-anchor="middle"
        font-family="Inter, Arial, Helvetica, sans-serif"
        font-size="42"
        font-weight="800"
        letter-spacing="0"
        fill="#ffffff">NM</text>
</svg>
